<svg width="48" height="48" viewBox="0 0 48 48" fill="none" xmlns="http://www.w3.org/2000/svg">
<g clip-path="url(#clip0_2511_6)">
<path d="M24 48C10.7472 48 0 37.2528 0 24C0 10.7472 10.7472 0 24 0C37.2528 0 48 10.7472 48 24C48 37.2528 37.2528 48 24 48Z" fill="#FF0000"/>
<path d="M39.2736 16.2768C38.9088 14.8944 37.8288 13.8096 36.456 13.44C33.9696 12.768 24.0048 12.768 24.0048 12.768C24.0048 12.768 14.0352 12.768 11.5536 13.44C10.1808 13.8096 9.1008 14.8944 8.736 16.2768C8.064 18.7776 8.064 24 8.064 24C8.064 24 8.064 29.2224 8.7312 31.7232C9.096 33.1056 10.176 34.1904 11.5488 34.56C14.0352 35.232 24 35.232 24 35.232C24 35.232 33.9696 35.232 36.4512 34.56C37.824 34.1904 38.904 33.1056 39.2688 31.7232C39.936 29.2224 39.936 24 39.936 24C39.936 24 39.936 18.7776 39.2736 16.2768ZM20.7408 28.7376V19.2624L29.0688 24L20.7408 28.7376Z" fill="white"/>
</g>
<defs>
<clipPath id="clip0_2511_6">
<rect width="48" height="48" fill="white"/>
</clipPath>
</defs>
</svg>
